<svg width="44" height="44" viewBox="0 0 44 44" fill="none" xmlns="http://www.w3.org/2000/svg">
<g clip-path="url(#clip0_9_15)">
<path d="M22.0002 25.8672C24.1315 25.8672 25.876 24.1312 25.876 21.9914C25.876 21.1492 25.601 20.3672 25.1455 19.7312C24.4409 18.7601 23.2979 18.1156 22.0088 18.1156C20.7198 18.1156 19.5768 18.7515 18.8721 19.7312C18.4166 20.3672 18.1416 21.1492 18.1416 21.9914C18.133 24.1312 19.869 25.8672 22.0002 25.8672Z" fill="black"/>
<path d="M30.4562 17.2648V14.0164V13.5352H29.975L26.7266 13.5438L26.7437 17.2734L30.4562 17.2648Z" fill="black"/>
<path d="M28.0156 22C28.0156 25.3172 25.3172 28.0156 22 28.0156C18.6828 28.0156 15.9844 25.3172 15.9844 22C15.9844 21.2008 16.1477 20.436 16.4313 19.7399H13.1484V28.7461C13.1484 29.9063 14.0938 30.8516 15.2539 30.8516H28.7461C29.9062 30.8516 30.8516 29.9063 30.8516 28.7461V19.7399H27.5688C27.8609 20.436 28.0156 21.2008 28.0156 22Z" fill="black"/>
<path d="M22 0C9.84844 0 0 9.84844 0 22C0 34.1516 9.84844 44 22 44C34.1516 44 44 34.1516 44 22C44 9.84844 34.1516 0 22 0ZM33 19.7398V28.7461C33 31.0922 31.0922 33 28.7461 33H15.2539C12.9078 33 11 31.0922 11 28.7461V19.7398V15.2453C11 12.8992 12.9078 10.9914 15.2539 10.9914H28.7461C31.0922 10.9914 33 12.8992 33 15.2453V19.7398Z" fill="black"/>
</g>
<defs>
<clipPath id="clip0_9_15">
<rect width="44" height="44" fill="white"/>
</clipPath>
</defs>
</svg>
