<svg width="416" height="24" viewBox="0 0 416 24" fill="none" xmlns="http://www.w3.org/2000/svg">
<path d="M0.61 24C0.31 24 0.16 23.85 0.16 23.55V0.455998C0.16 0.155999 0.31 0.00599885 0.61 0.00599885H5.704C6.004 0.00599885 6.154 0.155999 6.154 0.455998V23.55C6.154 23.85 6.004 24 5.704 24H0.61ZM15.0868 24C14.7988 24 14.5588 23.898 14.3668 23.694L10.7668 20.094C10.5628 19.902 10.4608 19.662 10.4608 19.374V0.455998C10.4608 0.155999 10.6108 0.00599885 10.9108 0.00599885H16.0048C16.3048 0.00599885 16.4548 0.155999 16.4548 0.455998V19.176H20.4868V0.455998C20.4868 0.155999 20.6368 0.00599885 20.9368 0.00599885H26.0308C26.3308 0.00599885 26.4808 0.155999 26.4808 0.455998V19.374C26.4808 19.662 26.3788 19.902 26.1748 20.094L22.5748 23.694C22.3828 23.898 22.1428 24 21.8548 24H15.0868ZM31.1403 24C30.8403 24 30.6903 23.85 30.6903 23.55V6.864C30.6903 6.708 30.7503 6.528 30.8703 6.324L35.1363 0.275999C35.2683 0.0959988 35.4603 0.00599885 35.7123 0.00599885H41.6703C41.9343 0.00599885 42.1263 0.0959988 42.2463 0.275999L46.5303 6.324C46.6503 6.492 46.7103 6.672 46.7103 6.864V23.55C46.7103 23.85 46.5603 24 46.2603 24H41.1663C40.8663 24 40.7163 23.85 40.7163 23.55V15.9H36.7023V23.55C36.7023 23.85 36.5523 24 36.2523 24H31.1403ZM38.7003 12.03C39.8043 12.03 40.5483 11.79 40.9323 11.31C41.3283 10.818 41.5263 9.888 41.5263 8.52C41.5263 7.152 41.3283 6.228 40.9323 5.748C40.5483 5.256 39.8043 5.01 38.7003 5.01C37.6083 5.01 36.8643 5.256 36.4683 5.748C36.0843 6.228 35.8923 7.152 35.8923 8.52C35.8923 9.888 36.0843 10.818 36.4683 11.31C36.8643 11.79 37.6083 12.03 38.7003 12.03ZM51.3756 24C51.0756 24 50.9256 23.85 50.9256 23.55V0.455998C50.9256 0.155999 51.0756 0.00599885 51.3756 0.00599885H61.5996C61.8876 0.00599885 62.1276 0.101999 62.3196 0.293999L65.9196 3.894C66.1236 4.098 66.2256 4.338 66.2256 4.614V23.55C66.2256 23.85 66.0756 24 65.7756 24H60.6816C60.3816 24 60.2316 23.85 60.2316 23.55V4.794H56.9196V23.55C56.9196 23.85 56.7696 24 56.4696 24H51.3756ZM76.7233 24C76.4233 24 76.2733 23.85 76.2733 23.55V0.455998C76.2733 0.155999 76.4233 0.00599885 76.7233 0.00599885H89.0533C89.3533 0.00599885 89.5033 0.155999 89.5033 0.455998V4.344C89.5033 4.644 89.3533 4.794 89.0533 4.794H82.2673V10.806H88.1533C88.4533 10.806 88.6033 10.956 88.6033 11.256V15.144C88.6033 15.444 88.4533 15.594 88.1533 15.594H82.2673V23.55C82.2673 23.85 82.1173 24 81.8173 24H76.7233ZM92.8248 24C92.5248 24 92.3748 23.85 92.3748 23.55V0.455998C92.3748 0.155999 92.5248 0.00599885 92.8248 0.00599885H97.9188C98.2188 0.00599885 98.3688 0.155999 98.3688 0.455998V19.194H102.905C103.205 19.194 103.355 19.344 103.355 19.644V23.55C103.355 23.85 103.205 24 102.905 24H92.8248ZM106.676 24C106.376 24 106.226 23.85 106.226 23.55V0.455998C106.226 0.155999 106.376 0.00599885 106.676 0.00599885H111.77C112.07 0.00599885 112.22 0.155999 112.22 0.455998V23.55C112.22 23.85 112.07 24 111.77 24H106.676ZM121.153 24C120.865 24 120.625 23.898 120.433 23.694L116.833 20.094C116.629 19.902 116.527 19.662 116.527 19.374V0.455998C116.527 0.155999 116.677 0.00599885 116.977 0.00599885H122.071C122.371 0.00599885 122.521 0.155999 122.521 0.455998V18.834C122.521 19.074 122.641 19.194 122.881 19.194H125.833V0.455998C125.833 0.155999 125.983 0.00599885 126.283 0.00599885H131.377C131.677 0.00599885 131.827 0.155999 131.827 0.455998V23.55C131.827 23.85 131.677 24 131.377 24H121.153ZM136.594 24C136.294 24 136.144 23.85 136.144 23.55V0.455998C136.144 0.155999 136.294 0.00599885 136.594 0.00599885H146.818C147.106 0.00599885 147.346 0.101999 147.538 0.293999L151.138 3.894C151.342 4.098 151.444 4.338 151.444 4.614V23.55C151.444 23.85 151.294 24 150.994 24H145.9C145.6 24 145.45 23.85 145.45 23.55V4.794H142.138V23.55C142.138 23.85 141.988 24 141.688 24H136.594ZM156.086 24C155.786 24 155.636 23.85 155.636 23.55V0.455998C155.636 0.155999 155.786 0.00599885 156.086 0.00599885H167.066C167.354 0.00599885 167.594 0.101999 167.786 0.293999L171.386 3.894C171.59 4.098 171.692 4.338 171.692 4.614V19.374C171.692 19.662 171.59 19.902 171.386 20.094L167.786 23.694C167.594 23.898 167.354 24 167.066 24H156.086ZM161.648 19.194H164.942C165.446 19.194 165.698 18.858 165.698 18.186V5.82C165.698 5.136 165.446 4.794 164.942 4.794H161.648V19.194ZM176.321 24C176.021 24 175.871 23.85 175.871 23.55V0.455998C175.871 0.155999 176.021 0.00599885 176.321 0.00599885H186.077C186.365 0.00599885 186.605 0.0839989 186.797 0.239999L190.937 4.344C191.069 4.464 191.147 4.566 191.171 4.65C191.207 4.734 191.225 4.872 191.225 5.064V9.996C191.225 10.152 191.165 10.29 191.045 10.41L189.065 12.336L187.391 13.776L189.371 16.404L191.405 20.76C191.453 20.868 191.489 20.976 191.513 21.084C191.549 21.18 191.567 21.3 191.567 21.444V23.55C191.567 23.85 191.417 24 191.117 24H186.365C186.101 24 185.921 23.88 185.825 23.64L182.927 15.216H181.577V23.55C181.577 23.85 181.427 24 181.127 24H176.321ZM183.557 10.806C184.553 10.806 185.231 10.602 185.591 10.194C185.951 9.774 186.131 8.994 186.131 7.854C186.131 6.702 185.951 5.922 185.591 5.514C185.231 5.094 184.553 4.884 183.557 4.884C182.573 4.884 181.895 5.094 181.523 5.514C181.151 5.922 180.965 6.702 180.965 7.854C180.965 8.994 181.151 9.774 181.523 10.194C181.895 10.602 182.573 10.806 183.557 10.806ZM199.059 24C198.783 24 198.543 23.898 198.339 23.694L194.739 20.094C194.535 19.902 194.433 19.662 194.433 19.374V4.614C194.433 4.338 194.535 4.098 194.739 3.894L198.339 0.293999C198.543 0.101999 198.783 0.00599885 199.059 0.00599885H206.133C206.421 0.00599885 206.661 0.101999 206.853 0.293999L210.453 3.894C210.657 4.098 210.759 4.338 210.759 4.614V19.374C210.759 19.662 210.657 19.902 210.453 20.094L206.853 23.694C206.661 23.898 206.421 24 206.133 24H199.059ZM201.183 19.194H204.009C204.513 19.194 204.765 18.858 204.765 18.186V5.82C204.765 5.136 204.513 4.794 204.009 4.794H201.183C200.691 4.794 200.445 5.136 200.445 5.82V18.186C200.445 18.858 200.691 19.194 201.183 19.194ZM219.451 14.856C219.151 14.856 219.001 14.706 219.001 14.406V9.6C219.001 9.3 219.151 9.15 219.451 9.15H228.631C228.931 9.15 229.081 9.3 229.081 9.6V14.406C229.081 14.706 228.931 14.856 228.631 14.856H219.451ZM237.774 24C237.474 24 237.324 23.85 237.324 23.55V0.455998C237.324 0.155999 237.474 0.00599885 237.774 0.00599885H242.868C243.168 0.00599885 243.318 0.155999 243.318 0.455998V9.006H247.764V0.455998C247.764 0.155999 247.914 0.00599885 248.214 0.00599885H253.308C253.608 0.00599885 253.758 0.155999 253.758 0.455998V23.55C253.758 23.85 253.608 24 253.308 24H248.214C247.914 24 247.764 23.85 247.764 23.55V13.794H243.318V23.55C243.318 23.85 243.168 24 242.868 24H237.774ZM262.692 24C262.416 24 262.176 23.898 261.972 23.694L258.372 20.094C258.168 19.902 258.066 19.662 258.066 19.374V4.614C258.066 4.338 258.168 4.098 258.372 3.894L261.972 0.293999C262.176 0.101999 262.416 0.00599885 262.692 0.00599885H269.766C270.054 0.00599885 270.294 0.101999 270.486 0.293999L274.086 3.894C274.29 4.098 274.392 4.338 274.392 4.614V19.374C274.392 19.662 274.29 19.902 274.086 20.094L270.486 23.694C270.294 23.898 270.054 24 269.766 24H262.692ZM264.816 19.194H267.642C268.146 19.194 268.398 18.858 268.398 18.186V5.82C268.398 5.136 268.146 4.794 267.642 4.794H264.816C264.324 4.794 264.078 5.136 264.078 5.82V18.186C264.078 18.858 264.324 19.194 264.816 19.194ZM279.243 24C278.943 24 278.793 23.85 278.793 23.55V0.455998C278.793 0.155999 278.943 0.00599885 279.243 0.00599885H290.079C290.355 0.00599885 290.595 0.101999 290.799 0.293999L294.399 3.894C294.591 4.098 294.687 4.338 294.687 4.614V8.394C294.687 8.514 294.663 8.61 294.615 8.682C294.567 8.754 294.495 8.838 294.399 8.934L291.573 11.454L291.303 12.12L291.573 12.606L294.399 15.126C294.495 15.222 294.567 15.306 294.615 15.378C294.663 15.438 294.687 15.534 294.687 15.666V19.374C294.687 19.662 294.591 19.902 294.399 20.094L290.799 23.694C290.595 23.898 290.355 24 290.079 24H279.243ZM286.407 19.95C287.403 19.95 288.081 19.752 288.441 19.356C288.813 18.96 288.999 18.21 288.999 17.106C288.999 15.99 288.813 15.234 288.441 14.838C288.081 14.442 287.403 14.244 286.407 14.244C285.423 14.244 284.745 14.442 284.373 14.838C284.013 15.234 283.833 15.99 283.833 17.106C283.833 18.21 284.013 18.96 284.373 19.356C284.745 19.752 285.423 19.95 286.407 19.95ZM286.407 9.744C287.403 9.744 288.081 9.546 288.441 9.15C288.813 8.754 288.999 8.004 288.999 6.9C288.999 5.796 288.813 5.046 288.441 4.65C288.081 4.254 287.403 4.056 286.407 4.056C285.423 4.056 284.745 4.254 284.373 4.65C284.013 5.046 283.833 5.796 283.833 6.9C283.833 8.004 284.013 8.754 284.373 9.15C284.745 9.546 285.423 9.744 286.407 9.744ZM299.634 24C299.334 24 299.184 23.85 299.184 23.55V0.455998C299.184 0.155999 299.334 0.00599885 299.634 0.00599885H310.47C310.746 0.00599885 310.986 0.101999 311.19 0.293999L314.79 3.894C314.982 4.098 315.078 4.338 315.078 4.614V8.394C315.078 8.514 315.054 8.61 315.006 8.682C314.958 8.754 314.886 8.838 314.79 8.934L311.964 11.454L311.694 12.12L311.964 12.606L314.79 15.126C314.886 15.222 314.958 15.306 315.006 15.378C315.054 15.438 315.078 15.534 315.078 15.666V19.374C315.078 19.662 314.982 19.902 314.79 20.094L311.19 23.694C310.986 23.898 310.746 24 310.47 24H299.634ZM306.798 19.95C307.794 19.95 308.472 19.752 308.832 19.356C309.204 18.96 309.39 18.21 309.39 17.106C309.39 15.99 309.204 15.234 308.832 14.838C308.472 14.442 307.794 14.244 306.798 14.244C305.814 14.244 305.136 14.442 304.764 14.838C304.404 15.234 304.224 15.99 304.224 17.106C304.224 18.21 304.404 18.96 304.764 19.356C305.136 19.752 305.814 19.95 306.798 19.95ZM306.798 9.744C307.794 9.744 308.472 9.546 308.832 9.15C309.204 8.754 309.39 8.004 309.39 6.9C309.39 5.796 309.204 5.046 308.832 4.65C308.472 4.254 307.794 4.056 306.798 4.056C305.814 4.056 305.136 4.254 304.764 4.65C304.404 5.046 304.224 5.796 304.224 6.9C304.224 8.004 304.404 8.754 304.764 9.15C305.136 9.546 305.814 9.744 306.798 9.744ZM324.218 24C323.918 24 323.768 23.85 323.768 23.55V16.53L318.944 11.724C318.86 11.628 318.806 11.544 318.782 11.472C318.77 11.388 318.764 11.292 318.764 11.184V0.455998C318.764 0.155999 318.914 0.00599885 319.214 0.00599885H324.308C324.608 0.00599885 324.758 0.155999 324.758 0.455998V11.346H328.79V0.455998C328.79 0.155999 328.94 0.00599885 329.24 0.00599885H334.334C334.634 0.00599885 334.784 0.155999 334.784 0.455998V11.184C334.784 11.292 334.778 11.388 334.766 11.472C334.754 11.544 334.7 11.628 334.604 11.724L329.798 16.53V23.55C329.798 23.85 329.648 24 329.348 24H324.218ZM344.579 24C344.279 24 344.129 23.85 344.129 23.55V0.455998C344.129 0.155999 344.279 0.00599885 344.579 0.00599885H354.533C354.821 0.00599885 355.061 0.101999 355.253 0.293999L358.853 3.894C359.057 4.098 359.159 4.338 359.159 4.614V10.824C359.159 11.112 359.057 11.352 358.853 11.544L355.253 15.144C355.061 15.348 354.821 15.45 354.533 15.45H350.123V23.55C350.123 23.85 349.973 24 349.673 24H344.579ZM351.473 10.554C352.469 10.554 353.147 10.356 353.507 9.96C353.879 9.564 354.065 8.814 354.065 7.71C354.065 6.606 353.879 5.856 353.507 5.46C353.147 5.064 352.469 4.866 351.473 4.866C350.489 4.866 349.811 5.064 349.439 5.46C349.079 5.856 348.899 6.606 348.899 7.71C348.899 8.814 349.079 9.564 349.439 9.96C349.811 10.356 350.489 10.554 351.473 10.554ZM362.382 24C362.082 24 361.932 23.85 361.932 23.55V6.864C361.932 6.708 361.992 6.528 362.112 6.324L366.378 0.275999C366.51 0.0959988 366.702 0.00599885 366.954 0.00599885H372.912C373.176 0.00599885 373.368 0.0959988 373.488 0.275999L377.772 6.324C377.892 6.492 377.952 6.672 377.952 6.864V23.55C377.952 23.85 377.802 24 377.502 24H372.408C372.108 24 371.958 23.85 371.958 23.55V15.9H367.944V23.55C367.944 23.85 367.794 24 367.494 24H362.382ZM369.942 12.03C371.046 12.03 371.79 11.79 372.174 11.31C372.57 10.818 372.768 9.888 372.768 8.52C372.768 7.152 372.57 6.228 372.174 5.748C371.79 5.256 371.046 5.01 369.942 5.01C368.85 5.01 368.106 5.256 367.71 5.748C367.326 6.228 367.134 7.152 367.134 8.52C367.134 9.888 367.326 10.818 367.71 11.31C368.106 11.79 368.85 12.03 369.942 12.03ZM386.794 24C386.506 24 386.266 23.898 386.074 23.694L382.474 20.094C382.27 19.902 382.168 19.662 382.168 19.374V4.614C382.168 4.338 382.27 4.098 382.474 3.894L386.074 0.293999C386.266 0.101999 386.506 0.00599885 386.794 0.00599885H397.432C397.732 0.00599885 397.882 0.155999 397.882 0.455998V4.344C397.882 4.644 397.732 4.794 397.432 4.794H388.774C388.606 4.794 388.462 4.854 388.342 4.974C388.222 5.094 388.162 5.238 388.162 5.406V18.564C388.162 18.732 388.222 18.876 388.342 18.996C388.462 19.116 388.606 19.176 388.774 19.176H392.662V14.37H390.358C390.058 14.37 389.908 14.22 389.908 13.92V10.05C389.908 9.75 390.058 9.6 390.358 9.6H397.738C398.038 9.6 398.188 9.75 398.188 10.05V19.374C398.188 19.662 398.086 19.902 397.882 20.094L394.282 23.694C394.09 23.898 393.85 24 393.562 24H386.794ZM402.411 24C402.111 24 401.961 23.85 401.961 23.55V0.455998C401.961 0.155999 402.111 0.00599885 402.411 0.00599885H414.957C415.257 0.00599885 415.407 0.155999 415.407 0.455998V4.344C415.407 4.644 415.257 4.794 414.957 4.794H407.955V9.906H414.345C414.645 9.906 414.795 10.056 414.795 10.356V13.65C414.795 13.95 414.645 14.1 414.345 14.1H407.955V19.194H414.957C415.257 19.194 415.407 19.344 415.407 19.644V23.55C415.407 23.85 415.257 24 414.957 24H402.411Z" fill="black"/>
</svg>
